<svg xmlns="http://www.w3.org/2000/svg" version="1.1" xmlns:xlink="http://www.w3.org/1999/xlink" xmlns:svgjs="http://svgjs.dev/svgjs" width="100" height="100"><svg width="100" height="100" viewBox="0 0 100 100" fill="none" xmlns="http://www.w3.org/2000/svg">
<rect width="100" height="100" fill="#095143"></rect>
<path d="M48.072 15.0005C48.1477 15.0005 48.2234 15.0004 48.2991 15.0002C48.7332 14.9995 49.167 14.9999 49.601 15.013C49.6088 15.0133 49.6166 15.0135 49.6247 15.0137C50.6087 15.0437 51.5842 15.1302 52.558 15.2736C52.5693 15.2753 52.5693 15.2753 52.5808 15.277C53.4361 15.4027 54.2868 15.5551 55.528 15.8382C55.5417 15.8415 55.5553 15.8448 55.5694 15.8482C56.4173 16.0533 57.2525 16.2967 58.0802 16.5723C58.0968 16.5778 58.0968 16.5778 58.1137 16.5834C59.1962 16.9436 60.2578 17.3716 61.2946 17.8474C61.3381 17.8674 61.3817 17.8873 61.4253 17.9072C61.4748 17.9298 61.5243 17.9524 61.5738 17.9751C61.6534 18.0116 61.733 18.0478 61.8128 18.0837C62.0978 18.2118 62.3759 18.3466 62.6445 18.507C62.7841 18.5899 62.9248 18.6694 63.0708 18.7404C63.2277 18.8167 63.382 18.897 63.5347 18.9815C63.5704 19.0013 63.6063 19.0209 63.6422 19.0406C63.7911 19.1224 63.9378 19.2073 64.0832 19.2953C64.154 19.3381 64.2253 19.3799 64.2968 19.4216C64.5297 19.5574 64.7605 19.6966 64.9877 19.8417C65.0157 19.8595 65.0437 19.8772 65.0717 19.8948C65.6018 20.2292 66.1227 20.5845 66.629 20.954C66.6375 20.9602 66.6461 20.9664 66.6549 20.9728C66.7802 21.0643 66.904 21.1577 67.0272 21.2519C67.0682 21.2832 67.1093 21.3142 67.1506 21.345C67.205 21.3856 67.2587 21.4273 67.3122 21.4692C67.3859 21.5268 67.4603 21.5834 67.5353 21.6393C67.6648 21.7361 67.7915 21.8359 67.9167 21.9382C67.9664 21.9788 68.0167 22.0185 68.0674 22.0578C68.1231 22.1011 68.176 22.1465 68.2279 22.1942C68.2565 22.2199 68.2859 22.2441 68.3159 22.2682C68.3612 22.3048 68.4045 22.3428 68.4472 22.3825C68.4984 22.4301 68.5512 22.4749 68.6056 22.5187C68.645 22.5511 68.6834 22.5846 68.7217 22.6182C68.7823 22.6712 68.8442 22.7217 68.9078 22.771C68.9823 22.8289 69.0535 22.8908 69.1247 22.9528C69.1376 22.964 69.1376 22.964 69.1508 22.9753C69.1646 22.9874 69.1785 22.9995 69.1923 23.0117C69.2073 23.025 69.2224 23.0382 69.2375 23.0513C69.3326 23.1351 69.421 23.2256 69.5101 23.3156C69.5419 23.3476 69.5737 23.3797 69.6055 23.4117C69.6126 23.4188 69.6196 23.426 69.6269 23.4334C69.6759 23.4827 69.7271 23.5286 69.7797 23.5739C69.7986 23.5908 69.8174 23.6077 69.8362 23.6247C69.8694 23.6547 69.9027 23.6844 69.9364 23.7137C69.9914 23.7616 70.0451 23.811 70.0987 23.8605C70.1115 23.8724 70.1244 23.8842 70.1373 23.8961C70.2524 24.0022 70.364 24.1113 70.4746 24.2221C70.4919 24.2394 70.5092 24.2567 70.5265 24.274C70.5624 24.3098 70.5982 24.3457 70.6341 24.3816C70.6799 24.4275 70.7257 24.4732 70.7715 24.519C70.8071 24.5545 70.8426 24.5901 70.8782 24.6257C70.895 24.6426 70.9119 24.6594 70.9288 24.6763C70.9524 24.6999 70.976 24.7235 70.9996 24.7471C71.0064 24.7539 71.0132 24.7608 71.0203 24.7678C71.0622 24.8099 71.1018 24.8534 71.1405 24.8984C71.1603 24.921 71.1811 24.9421 71.2026 24.9629C71.2389 24.9988 71.2729 25.0359 71.3061 25.0745C71.3291 25.101 71.3526 25.1269 71.3763 25.1528C71.4124 25.1928 71.4469 25.2337 71.4807 25.2756C71.5149 25.3178 71.55 25.357 71.5891 25.3946C71.609 25.4145 71.6273 25.4351 71.6457 25.4564C71.6875 25.5045 71.7311 25.5507 71.7751 25.5968C71.8438 25.6692 71.9098 25.7433 71.9743 25.8196C72.0013 25.8516 72.0292 25.8827 72.0574 25.9137C72.1043 25.9654 72.1484 26.019 72.1923 26.0733C72.2236 26.1118 72.2552 26.15 72.2868 26.1882C72.3307 26.2415 72.3745 26.2949 72.418 26.3485C72.4621 26.4024 72.5074 26.4552 72.5528 26.508C72.5868 26.5475 72.6203 26.5874 72.6531 26.628C72.6932 26.6774 72.7347 26.7255 72.7766 26.7734C72.8292 26.8335 72.8797 26.8949 72.9287 26.958C72.9675 27.0082 73.0074 27.0574 73.0476 27.1065C73.1174 27.1919 73.1845 27.2791 73.251 27.367C73.2748 27.3983 73.2987 27.4295 73.3226 27.4607C73.3408 27.4844 73.3589 27.5082 73.3771 27.532C73.4048 27.5682 73.4325 27.6044 73.4603 27.6406C73.5443 27.7502 73.6269 27.8607 73.7073 27.9731C73.745 28.0255 73.7834 28.0774 73.8219 28.1292C73.8969 28.2305 73.9692 28.3336 74.0411 28.4371C74.064 28.4699 74.0872 28.5025 74.1103 28.5352C74.254 28.7375 74.3917 28.9441 74.5305 29.1498C74.5375 29.1601 74.5445 29.1705 74.5516 29.1811C74.7975 29.5455 74.7975 29.5455 74.8997 29.7032C74.9057 29.7124 74.9116 29.7216 74.9178 29.7311C75.1323 30.0624 75.3419 30.3974 75.5405 30.7385C75.5731 30.7942 75.6066 30.8493 75.6402 30.9043C75.7424 31.0711 75.8403 31.2397 75.9344 31.4112C75.9402 31.4218 75.946 31.4323 75.952 31.4432C75.9915 31.5153 76.0307 31.5874 76.0699 31.6597C76.0817 31.6815 76.0936 31.7033 76.1054 31.7251C76.1363 31.782 76.1671 31.839 76.1979 31.8959C76.2165 31.9304 76.2353 31.9648 76.254 31.9992C76.4941 32.4414 76.7237 32.8909 76.9329 33.3487C76.9517 33.3895 76.9709 33.4303 76.9902 33.4709C77.3765 34.2852 77.7169 35.1244 78.0137 35.9752C78.0559 36.0961 78.0995 36.2164 78.1443 36.3364C78.1474 36.3446 78.1504 36.3529 78.1536 36.3614C78.1839 36.4427 78.2144 36.524 78.2451 36.6052C78.4154 37.0571 78.5481 37.5191 78.6786 37.9837C78.6822 37.9965 78.6858 38.0094 78.6895 38.0226C78.917 38.8343 79.1094 39.6555 79.7867 44.5478C79.7871 44.5567 79.7876 44.5657 79.788 44.5749C79.7913 44.6439 79.794 44.713 79.7966 44.7821C79.797 44.7941 79.7975 44.8062 79.798 44.8186C79.8104 45.1466 79.8097 45.4746 79.8098 45.8029C79.8098 45.8511 79.8098 45.8993 79.8098 45.9475C79.8099 46.1084 79.81 46.2694 79.81 46.4303C79.81 46.4389 79.81 46.4475 79.81 46.4563C79.81 46.4649 79.81 46.4735 79.81 46.4824C79.81 46.621 79.8101 46.7595 79.8102 46.8981C79.8104 47.0422 79.8105 47.1864 79.8105 47.3305C79.8105 47.4107 79.8105 47.4908 79.8106 47.571C79.8111 47.9054 79.8082 48.2394 79.7974 48.5737C79.7969 48.5882 79.7964 48.6027 79.796 48.6176C79.7862 48.9129 79.7713 49.2078 79.7514 49.5025C79.7503 49.5191 79.7503 49.5191 79.7492 49.5361C79.6997 50.2656 79.6049 50.9921 79.503 51.716C79.5018 51.7239 79.5007 51.7318 79.4996 51.74C79.4206 52.3002 79.3231 52.8545 79.2 53.4067C79.1818 53.4884 79.1641 53.5701 79.1464 53.652C79.1409 53.6775 79.1353 53.7029 79.1298 53.7284C79.1105 53.8174 79.0918 53.9065 79.0738 53.9958C78.8767 54.9704 78.5854 55.9234 78.2719 56.8659C78.2617 56.8966 78.2515 56.9273 78.2413 56.958C78.1281 57.299 78.0025 57.6357 77.8768 57.9723C77.8726 57.9835 77.8684 57.9947 77.8641 58.0063C77.6831 58.4903 77.4901 58.9696 77.2901 59.446C77.278 59.4747 77.266 59.5034 77.254 59.532C77.1045 59.8886 76.9468 60.2404 76.7773 60.5879C76.7594 60.6247 76.7418 60.6616 76.7243 60.6985C76.6483 60.8588 76.5682 61.0165 76.4859 61.1735C76.4645 61.2145 76.4434 61.2556 76.4222 61.2967C76.3528 61.4318 76.2826 61.5663 76.2093 61.6994C76.1695 61.7718 76.1311 61.845 76.0932 61.9184C76.0365 62.028 75.9768 62.1355 75.9156 62.2425C75.8902 62.2871 75.8651 62.3318 75.8402 62.3767C75.7519 62.5366 75.6589 62.6932 75.5635 62.8489C75.5224 62.9161 75.4821 62.9837 75.4417 63.0513C75.3594 63.1889 75.2747 63.325 75.1891 63.4606C75.1823 63.4713 75.1756 63.482 75.1686 63.493C75.1486 63.5246 75.1286 63.5561 75.1086 63.5877C75.1029 63.5966 75.0973 63.6055 75.0914 63.6147C74.9765 63.7951 74.8589 63.9739 74.7412 64.1525C74.7204 64.1841 74.6996 64.2157 74.6788 64.2474C74.5957 64.3736 74.5115 64.4988 74.4258 64.6232C74.4047 64.6538 74.3837 64.6845 74.3627 64.7151C74.2849 64.8286 74.2062 64.9415 74.1275 65.0544C74.1129 65.0754 74.0983 65.0963 74.0838 65.1172C73.9964 65.2426 73.908 65.3672 73.8182 65.4908C73.7998 65.5163 73.7813 65.5419 73.763 65.5675C73.6879 65.6718 73.6118 65.7752 73.5344 65.8778C73.5177 65.8999 73.5012 65.922 73.4847 65.9442C73.4059 66.0499 73.3254 66.1542 73.2443 66.258C73.2241 66.2838 73.2041 66.3097 73.1841 66.3356C73.1026 66.441 73.0197 66.5451 72.9353 66.6481C72.9207 66.6659 72.9063 66.6837 72.8918 66.7015C72.8417 66.763 72.7909 66.8238 72.7395 66.8842C72.7062 66.9234 72.6735 66.9631 72.6411 67.0031C72.6007 67.0527 72.5585 67.1002 72.5154 67.1474C72.4891 67.177 72.4641 67.2074 72.4392 67.2381C72.4064 67.2787 72.3728 67.3181 72.3376 67.3567C72.2844 67.4151 72.2347 67.476 72.1851 67.5374C72.1691 67.5569 72.1531 67.5765 72.1371 67.596C72.1077 67.6319 72.0784 67.6679 72.0492 67.7041C71.8809 67.9125 71.7045 68.1098 71.5139 68.2983C71.4526 68.3589 71.395 68.4198 71.3419 68.4878C71.3004 68.5384 71.2552 68.5853 71.2101 68.6327C71.1734 68.6714 71.1373 68.7105 71.102 68.7505C71.0354 68.8246 70.965 68.8946 70.8945 68.965C70.8796 68.9799 70.8647 68.9948 70.8498 69.0097C70.8097 69.0499 70.7695 69.0901 70.7294 69.1302C70.6872 69.1724 70.645 69.2146 70.6028 69.2567C70.5321 69.3275 70.4613 69.3983 70.3905 69.469C70.3088 69.5507 70.2271 69.6324 70.1455 69.7141C70.0752 69.7844 70.0048 69.8547 69.9345 69.9251C69.8926 69.967 69.8507 70.0089 69.8088 70.0508C69.7694 70.0902 69.73 70.1296 69.6906 70.169C69.6762 70.1834 69.6617 70.1978 69.6474 70.2122C69.5158 70.3439 69.5158 70.3439 69.4478 70.4017C69.417 70.4279 69.3878 70.4558 69.3584 70.4834C69.3144 70.5244 69.2699 70.5638 69.2228 70.6013C69.1601 70.6516 69.102 70.7063 69.0438 70.7616C68.9999 70.8034 68.9552 70.8438 68.9094 70.8835C68.8757 70.9131 68.8432 70.9439 68.8106 70.9747C68.7539 71.0278 68.6957 71.0781 68.635 71.1267C68.604 71.1522 68.5747 71.1789 68.5453 71.2062C68.4935 71.2538 68.4396 71.2973 68.384 71.3403C68.3281 71.3837 68.2744 71.4293 68.221 71.4756C68.184 71.5075 68.1467 71.5387 68.1084 71.569C68.0129 71.6445 67.9217 71.7254 67.8298 71.8052C67.8014 71.8298 67.773 71.8544 67.7446 71.879C67.7316 71.8902 67.7186 71.9015 67.7056 71.9128C67.4346 72.1481 67.2135 72.2978 66.8436 72.2804C66.782 72.2752 66.7225 72.262 66.6629 72.2466C66.6533 72.2441 66.6438 72.2417 66.6339 72.2392C65.6857 71.993 64.8554 71.3714 64.1085 70.7613C64.0904 70.7465 64.0723 70.7318 64.0542 70.7171C63.9341 70.6193 63.8164 70.5185 63.699 70.4175C63.6722 70.3946 63.6454 70.3717 63.6186 70.3489C63.5428 70.2844 63.4685 70.2188 63.3955 70.1512C63.3633 70.1216 63.3305 70.0928 63.2975 70.0641C63.2611 70.0323 63.2254 69.9998 63.1895 69.9674C63.1659 69.9463 63.1422 69.9254 63.1183 69.9047C63.0796 69.871 63.0417 69.8364 63.004 69.8016C62.9406 69.7434 62.8764 69.6863 62.8107 69.6307C62.7341 69.5656 62.659 69.4994 62.5858 69.4304C62.5528 69.3994 62.5194 69.369 62.4852 69.3393C62.4401 69.3 62.3961 69.2596 62.3525 69.2186C62.3447 69.2114 62.337 69.2041 62.329 69.1966C62.2719 69.1428 62.2163 69.0879 62.1612 69.0321C62.1303 69.0008 62.0989 68.971 62.0652 68.9427C62.0219 68.9059 61.9844 68.8643 61.9464 68.8221C61.9078 68.7793 61.8677 68.7383 61.8267 68.6977C61.7835 68.6551 61.7419 68.6118 61.7026 68.5656C61.6782 68.5373 61.6529 68.5099 61.6276 68.4825C61.5775 68.4274 61.53 68.3707 61.4833 68.3128C61.4453 68.2659 61.4067 68.2194 61.3683 68.1728C61.3311 68.1278 61.2943 68.0826 61.2578 68.0371C61.209 67.9773 61.1568 67.9211 61.1042 67.8648C61.0738 67.8322 61.0446 67.7989 61.0155 67.7652C60.9973 67.7446 60.9788 67.7245 60.9601 67.7045C60.954 67.6981 60.948 67.6916 60.9417 67.6849C60.9297 67.672 60.9176 67.6592 60.9054 67.6464C60.8278 67.5636 60.8278 67.5636 60.8211 67.5121C60.8222 67.4904 60.8233 67.4687 60.8244 67.4471C60.81 67.4499 60.7955 67.4526 60.7807 67.4555C60.7405 67.4553 60.7262 67.45 60.6956 67.4232C60.6654 67.387 60.6375 67.3497 60.6098 67.3115C60.5989 67.297 60.5879 67.2824 60.5769 67.2679C60.5539 67.2374 60.5311 67.2068 60.5083 67.1762C60.4618 67.1139 60.4136 67.053 60.3654 66.992C60.3501 66.9728 60.335 66.9535 60.3199 66.9341C60.2587 66.8558 60.1966 66.7783 60.1337 66.7013C60.0889 66.6463 60.0448 66.5907 60.0011 66.5348C59.9632 66.4864 59.9249 66.4384 59.8864 66.3905C59.8405 66.3332 59.7952 66.2756 59.7507 66.2174C59.724 66.1825 59.6972 66.1478 59.6702 66.1132C59.5937 66.0154 59.5182 65.9168 59.4438 65.8172C59.3923 65.7482 59.3402 65.6797 59.2879 65.6112C59.2105 65.51 59.1344 65.4078 59.0592 65.3049C59.04 65.2787 59.0206 65.2526 59.0012 65.2266C58.8305 64.9964 58.6867 64.7525 58.7239 64.4544C58.7538 64.335 58.8416 64.2442 58.9272 64.1608C58.9351 64.153 58.9429 64.1451 58.951 64.1371C59.0809 64.0148 59.2371 63.9239 59.3903 63.8344C59.5179 63.7599 59.6413 63.6802 59.7629 63.5962C59.7712 63.5904 59.7796 63.5846 59.7882 63.5787C60.0615 63.3894 60.3252 63.1863 60.587 62.9816C60.6084 62.9649 60.6298 62.9482 60.6513 62.9315C60.7287 62.871 60.8052 62.8094 60.8813 62.7473C60.9297 62.7079 60.9785 62.669 61.0277 62.6306C61.1083 62.5676 61.1877 62.5031 61.267 62.4384C61.2851 62.4236 61.3032 62.4089 61.3213 62.3942C61.3949 62.3342 61.4675 62.2731 61.5398 62.2117C61.5642 62.191 61.5886 62.1704 61.613 62.1498C61.6438 62.1238 61.6745 62.0977 61.7053 62.0716C61.7117 62.0661 61.7182 62.0606 61.7249 62.055C61.8077 61.9847 61.8891 61.9133 61.9688 61.8395C61.9936 61.8167 62.0186 61.7944 62.0441 61.7723C62.1054 61.719 62.165 61.6638 62.2247 61.6086C62.2345 61.5995 62.2345 61.5995 62.2445 61.5903C62.3566 61.4865 62.4661 61.3804 62.5739 61.2722C62.5984 61.2476 62.623 61.2231 62.6475 61.1987C62.6634 61.1828 62.6793 61.1668 62.6952 61.1509C62.7024 61.1438 62.7096 61.1366 62.717 61.1292C62.7595 61.0865 62.7999 61.0425 62.8392 60.9968C62.8683 60.9634 62.8988 60.9314 62.9291 60.8993C62.982 60.8428 63.0318 60.785 63.0802 60.7246C63.1187 60.678 63.1599 60.634 63.201 60.5896C63.2242 60.5645 63.2469 60.5391 63.2693 60.5132C63.3021 60.4754 63.3357 60.4385 63.3696 60.4017C63.5083 60.2506 63.6427 60.0966 63.7719 59.9372C63.7832 59.9234 63.7946 59.9096 63.806 59.8957C63.874 59.8129 63.94 59.729 64.0039 59.6429C64.0481 59.5835 64.094 59.5255 64.1405 59.4679C64.1813 59.4172 64.2213 59.3659 64.2608 59.3142C64.2888 59.2776 64.317 59.2413 64.3455 59.2052C64.4646 59.0546 64.5821 58.9026 64.6926 58.7457C64.7128 58.717 64.7333 58.6886 64.754 58.6602C64.9519 58.3888 65.138 58.1084 65.319 57.8255C65.3241 57.8175 65.3292 57.8096 65.3344 57.8014C65.5023 57.5391 65.6617 57.2717 65.8159 57.0011C65.8222 56.99 65.8286 56.9789 65.8351 56.9674C65.9225 56.8145 66.0074 56.6603 66.0907 56.5051C66.109 56.4712 66.1275 56.4374 66.1461 56.4036C66.3451 56.039 66.5321 55.6659 66.7027 55.2872C66.7173 55.2551 66.7321 55.2233 66.7472 55.1915C66.8914 54.8859 67.0143 54.5715 67.1372 54.2569C67.1413 54.2463 67.1454 54.2357 67.1497 54.2248C67.345 53.7245 67.5162 53.2136 67.6679 52.6985C67.6707 52.6893 67.6734 52.6801 67.6762 52.6706C67.8388 52.1172 67.9783 51.5548 68.0911 50.9892C68.097 50.9598 68.1029 50.9303 68.1089 50.9008C68.346 49.7199 68.4762 48.5166 68.5262 47.0294C68.5263 47.0178 68.5265 47.0062 68.5266 46.9943C68.5328 46.3767 68.5178 45.7594 68.4697 45.1435C68.4688 45.1318 68.4679 45.1202 68.467 45.1081C68.3751 43.9386 68.1855 42.7775 67.5211 40.3778C67.5182 40.3689 67.5152 40.3599 67.5122 40.3507C67.2265 39.4864 66.8671 38.6524 66.461 37.8383C66.4543 37.8248 66.4543 37.8248 66.4474 37.8111C66.399 37.7141 66.3498 37.6177 66.2984 37.5223C66.2678 37.4652 66.2398 37.4072 66.2126 37.3485C66.094 37.0976 65.9663 36.8508 65.8279 36.6103C65.7913 36.5465 65.7567 36.4817 65.722 36.4168C65.6412 36.2663 65.5541 36.1198 65.4658 35.9736C65.4586 35.9616 65.4514 35.9495 65.444 35.9372C65.3281 35.744 65.204 35.5575 65.0767 35.3718C65.0415 35.3205 65.0066 35.269 64.9716 35.2175C64.9405 35.1718 64.9094 35.126 64.8782 35.0803C64.8564 35.0482 64.8346 35.0161 64.8128 34.984C64.4827 34.4963 64.4827 34.4963 64.122 34.0312C64.1057 34.0112 64.0895 33.9912 64.0733 33.9712C63.9868 33.8655 63.8976 33.7622 63.8059 33.6611C63.7849 33.6378 63.7642 33.6144 63.7436 33.5908C63.7139 33.5566 63.6837 33.5228 63.6533 33.4891C63.6164 33.4483 63.58 33.4071 63.5439 33.3656C63.5204 33.3388 63.4965 33.3123 63.4726 33.2859C63.4351 33.2443 63.3977 33.2026 63.3612 33.16C63.349 33.1461 63.3363 33.1326 63.3232 33.1195C63.2745 33.0691 63.264 33.028 63.2637 32.9584C63.2506 32.9602 63.2376 32.9621 63.2242 32.964C63.1795 32.9638 63.1604 32.9521 63.1289 32.921C63.0872 32.8748 63.0484 32.8261 63.0094 32.7776C62.9676 32.7273 62.9231 32.6798 62.8784 32.632C62.8515 32.6032 62.8253 32.5737 62.7993 32.5441C62.7406 32.4784 62.6777 32.417 62.615 32.3553C62.5676 32.3084 62.5224 32.2606 62.4789 32.21C62.4586 32.1867 62.4373 32.1648 62.4153 32.1432C62.4083 32.1362 62.4013 32.1293 62.394 32.1222C62.3829 32.1113 62.3829 32.1113 62.3715 32.1001C62.3411 32.0698 62.3108 32.0393 62.2806 32.0088C62.2683 31.9964 62.2561 31.984 62.2438 31.9716C62.2378 31.9656 62.2318 31.9595 62.2256 31.9532C62.193 31.9204 62.1598 31.8891 62.1247 31.859C62.0634 31.8059 62.0073 31.7477 61.9504 31.6898C61.9037 31.6426 61.8561 31.5973 61.8056 31.554C61.772 31.5248 61.7398 31.494 61.7074 31.4635C61.6507 31.4103 61.5925 31.3602 61.5319 31.3116C61.5002 31.2855 61.47 31.2583 61.4399 31.2305C61.3903 31.1849 61.3392 31.1419 61.2867 31.0996C61.2494 31.0691 61.213 31.0376 61.1766 31.0061C61.1187 30.956 61.0595 30.908 60.999 30.8611C60.946 30.8199 60.8943 30.7773 60.8428 30.7344C60.7744 30.6777 60.7049 30.6232 60.6335 30.5704C60.5755 30.5274 60.5185 30.4832 60.4616 30.4386C60.3839 30.3778 60.3048 30.3195 60.224 30.2627C60.1935 30.2411 60.1633 30.2191 60.1331 30.1971C60.0447 30.1329 59.9556 30.0698 59.8659 30.0074C59.8502 29.9964 59.8502 29.9964 59.8342 29.9853C59.7699 29.9406 59.705 29.8968 59.6398 29.8535C59.6038 29.8295 59.5679 29.8054 59.532 29.7813C59.4115 29.7004 59.2911 29.62 59.1667 29.5452C59.1123 29.5125 59.0587 29.4788 59.0055 29.4441C58.9979 29.4392 58.9903 29.4342 58.9824 29.4291C58.9659 29.4183 58.9493 29.4076 58.9328 29.3968C58.6955 29.2422 58.6955 29.2422 58.4529 29.0962C58.4433 29.0906 58.4336 29.0851 58.4237 29.0794C58.2521 28.9811 58.0778 28.8889 57.9019 28.7989C57.8481 28.7713 57.7945 28.7432 57.741 28.715C57.6395 28.6615 57.5372 28.6102 57.4334 28.5612C57.3628 28.5278 57.2925 28.4938 57.2224 28.4594C57.0082 28.3542 56.7932 28.2515 56.5754 28.1541C56.5275 28.1327 56.4797 28.1109 56.432 28.089C55.8475 27.8217 55.2427 27.6044 54.6333 27.4014C54.6029 27.3912 54.5725 27.3811 54.5422 27.3708C53.9857 27.184 53.4212 27.024 52.8516 26.8828C52.8398 26.8798 52.8281 26.8769 52.816 26.8739C51.7386 26.6062 50.6382 26.4234 49.1023 26.3068C49.0914 26.3061 49.0804 26.3054 49.0691 26.3047C48.4215 26.2639 47.7609 26.2633 47.1133 26.3047C47.0786 26.307 47.0439 26.3091 47.0091 26.3112C46.4177 26.348 45.8307 26.4148 45.2444 26.4997C45.1843 26.5084 45.1242 26.517 45.0642 26.5255C44.0409 26.6718 43.0352 26.8667 42.0442 27.1651C42.0236 27.1713 42.003 27.1774 41.9823 27.1836C41.1553 27.4321 40.3481 27.7391 39.5598 28.0911C39.5523 28.0944 39.5448 28.0978 39.5371 28.1012C39.3145 28.2005 39.0945 28.3043 38.8756 28.4114C38.826 28.4356 38.7762 28.4594 38.7262 28.4827C38.6518 28.5175 38.5786 28.5536 38.5061 28.5924C38.4163 28.64 38.3258 28.6859 38.2348 28.7312C38.2215 28.7378 38.2082 28.7444 38.1946 28.7512C38.1397 28.7784 38.0849 28.8057 38.0301 28.8328C37.8527 28.9207 37.6774 29.0112 37.5045 29.1075C37.4917 29.1145 37.479 29.1215 37.4659 29.1287C37.3028 29.2188 37.1434 29.3149 36.9844 29.4122C36.9351 29.4423 36.8855 29.472 36.8359 29.5016C36.7257 29.5671 36.6176 29.6353 36.5107 29.706C36.5043 29.7102 36.4979 29.7145 36.4913 29.7188C36.2154 29.9012 35.942 30.0867 35.675 30.2819C35.6663 30.2883 35.6575 30.2947 35.6485 30.3012C35.5206 30.3948 35.3939 30.4899 35.2685 30.5868C35.2601 30.5932 35.2518 30.5997 35.2433 30.6063C35.1287 30.6946 35.0157 30.7845 34.9038 30.8761C34.8775 30.8975 34.851 30.9186 34.8245 30.9397C34.7213 31.0222 34.6198 31.1066 34.5192 31.1921C34.4948 31.2128 34.4704 31.2334 34.446 31.254C34.4216 31.2747 34.3972 31.2953 34.3728 31.316C34.3597 31.3271 34.3466 31.3381 34.3335 31.3492C34.2583 31.4125 34.1852 31.4761 34.1166 31.5467C34.095 31.5683 34.0727 31.5883 34.0495 31.6081C34.0018 31.6489 33.9582 31.6934 33.9144 31.7383C33.8904 31.7616 33.8794 31.772 33.8462 31.7737C33.8234 31.7733 33.8006 31.773 33.7778 31.7726C33.7787 31.779 33.7796 31.7854 33.7806 31.7921C33.7837 31.8307 33.7859 31.8616 33.7645 31.895C33.7437 31.9161 33.7219 31.9347 33.6987 31.9533C33.6848 31.9647 33.6848 31.9647 33.6706 31.9764C33.6497 31.9935 33.6288 32.0105 33.6078 32.0274C33.4502 32.1576 33.3046 32.3045 33.1737 32.4613C33.0927 32.5577 33.0071 32.6478 32.9175 32.7363C32.9037 32.75 32.8899 32.7638 32.8761 32.7775C32.8403 32.8132 32.8044 32.8488 32.7685 32.8844C32.7108 32.9416 32.6532 32.9989 32.5956 33.0562C32.5757 33.076 32.5558 33.0958 32.5358 33.1155C32.4787 33.1722 32.4224 33.229 32.3703 33.2903C32.3458 33.3191 32.3199 33.3465 32.2942 33.3741C32.2462 33.426 32.2009 33.4795 32.1565 33.5347C32.1242 33.5741 32.0906 33.6124 32.057 33.6508C31.9936 33.7234 31.9334 33.7979 31.8746 33.8742C31.8567 33.8973 31.8387 33.9203 31.8207 33.9432C31.7319 34.0564 31.6455 34.1711 31.5609 34.2873C31.5426 34.3124 31.5243 34.3373 31.506 34.3623C31.4058 34.4992 31.3105 34.6393 31.2159 34.78C31.2028 34.7994 31.1897 34.8188 31.1766 34.8382C31.083 34.9771 30.9904 35.1163 30.9042 35.2599C30.88 35.3002 30.855 35.3398 30.8296 35.3793C30.5112 35.8769 30.2248 36.3977 29.9446 36.9174C29.9089 36.9835 29.8726 37.0493 29.8358 37.1149C29.7695 37.2338 29.7066 37.3543 29.6446 37.4755C29.641 37.4825 29.6374 37.4895 29.6338 37.4967C29.51 37.7388 29.3931 37.9834 29.2832 38.2322C29.2796 38.2402 29.2761 38.2483 29.2724 38.2566C29.2209 38.3733 29.17 38.4903 29.1194 38.6074C29.0993 38.6539 29.0792 38.7003 29.059 38.7468C28.9156 39.0769 28.7741 39.4072 28.6508 39.7454C28.6478 39.7537 28.6447 39.762 28.6416 39.7706C28.5942 39.901 28.5487 40.032 28.504 40.1633C28.4989 40.1782 28.4989 40.1782 28.4937 40.1934C28.1103 41.3201 27.7949 42.457 27.4366 45.129C27.4349 45.1492 27.4331 45.1695 27.4314 45.1897C27.3982 45.5771 27.3726 45.9643 27.3669 46.3532C27.3667 46.367 27.3665 46.3807 27.3663 46.3949C27.3473 47.6388 27.4584 48.8904 27.9845 51.716C27.9885 51.7322 27.9885 51.7322 27.9925 51.7488C28.1166 52.2556 28.2622 52.7561 28.4249 53.2518C28.4278 53.2607 28.4307 53.2695 28.4337 53.2787C28.587 53.7444 28.7638 54.2011 28.9557 54.6521C28.9622 54.6674 28.9622 54.6674 28.9688 54.6829C29.031 54.8294 29.0941 54.9755 29.1581 55.1212C29.1658 55.1389 29.1736 55.1567 29.1814 55.1744C29.2843 55.4097 29.3972 55.64 29.5119 55.8697C29.5193 55.8846 29.5268 55.8995 29.5342 55.9143C29.6233 56.0931 29.7146 56.2702 29.8113 56.445C29.8304 56.4796 29.849 56.5144 29.8675 56.5493C29.9425 56.6902 30.0201 56.829 30.1012 56.9665C30.1289 57.0133 30.1561 57.0604 30.1831 57.1076C30.2723 57.2638 30.3647 57.4174 30.461 57.5692C30.4782 57.5964 30.4953 57.6237 30.5123 57.6511C30.7195 57.9844 30.9431 58.3082 31.1739 58.6254C31.1981 58.6587 31.2221 58.692 31.2461 58.7254C31.3732 58.9019 31.5021 59.0767 31.6365 59.2478C31.6534 59.2693 31.6703 59.2909 31.6871 59.3125C31.7475 59.3899 31.809 59.4664 31.8711 59.5424C31.9107 59.5909 31.9495 59.64 31.9878 59.6895C32.0377 59.7536 32.0902 59.8151 32.1437 59.8763C32.188 59.9269 32.2308 59.9784 32.2732 60.0306C32.317 60.0842 32.362 60.1368 32.4068 60.1896C32.4223 60.2079 32.4379 60.2263 32.4534 60.2447C32.6053 60.4247 32.6053 60.4247 32.7614 60.6011C32.7817 60.6236 32.8016 60.6463 32.8214 60.6692C32.9282 60.7911 33.0407 60.9066 33.1566 61.0199C33.217 61.0795 33.2723 61.1409 33.3253 61.2071C33.358 61.2475 33.3932 61.2852 33.4291 61.3227C33.5104 61.4088 33.5104 61.4088 33.547 61.4519C33.5878 61.4995 33.6327 61.5431 33.6775 61.5869C33.7089 61.6178 33.7388 61.6492 33.7674 61.6827C33.8225 61.7463 33.8818 61.8059 33.9411 61.8656C33.9545 61.8791 33.9679 61.8928 33.9813 61.9065C34.0945 62.0225 34.2075 62.106 34.3565 62.1725C34.3661 62.177 34.3756 62.1815 34.3855 62.1861C34.4891 62.2329 34.5595 62.219 34.6643 62.1794C34.8565 62.0946 35.0004 61.913 35.1295 61.7529C35.1712 61.7026 35.2157 61.6549 35.2603 61.6071C35.275 61.5911 35.2896 61.575 35.3042 61.5588C35.3937 61.4597 35.4875 61.3652 35.5821 61.2709C35.6095 61.2436 35.6368 61.2162 35.6641 61.1888C35.6818 61.1711 35.6995 61.1535 35.7171 61.1358C35.7252 61.1278 35.7332 61.1197 35.7415 61.1114C35.7867 61.0664 35.8329 61.0234 35.8813 60.9818C35.9084 60.9584 35.9346 60.9341 35.9609 60.9098C36.0115 60.8637 36.0634 60.8199 36.1167 60.7769C36.1527 60.7476 36.1881 60.7176 36.2234 60.6875C36.266 60.6513 36.3088 60.6156 36.3526 60.5809C36.4435 60.5087 36.5321 60.434 36.6173 60.3551C36.6877 60.2906 36.7623 60.2323 36.8382 60.1744C36.8487 60.1663 36.8487 60.1663 36.8594 60.1581C36.9639 60.0779 37.071 60.0024 37.18 59.9285C37.2307 59.8941 37.2808 59.859 37.3308 59.8236C37.3387 59.818 37.3466 59.8124 37.3548 59.8067C37.3932 59.7795 37.4315 59.7522 37.4697 59.7247C37.7919 59.4939 38.1306 59.2849 38.4757 59.0903C38.4885 59.083 38.5013 59.0758 38.5145 59.0684C38.8268 58.8926 39.1442 58.7272 39.4711 58.5802C39.4928 58.5704 39.5145 58.5606 39.5361 58.5508C39.9066 58.3828 40.2846 58.2366 40.6682 58.1013C40.7238 58.0817 40.7794 58.0616 40.8348 58.0412C41.5785 57.768 42.3772 57.5868 43.1622 57.4867C43.1706 57.4856 43.1791 57.4845 43.1877 57.4834C43.4015 57.4564 43.6157 57.4376 43.8306 57.4224C43.8451 57.4214 43.8451 57.4214 43.8599 57.4204C44.1334 57.4012 44.4068 57.3944 44.681 57.3941C44.7049 57.394 44.7289 57.394 44.7529 57.3939C44.829 57.3938 44.9052 57.3937 44.9813 57.3936C45.0587 57.3936 45.136 57.3934 45.2133 57.3931C46.222 57.3894 47.2009 57.4869 51.2932 58.8983C51.3052 58.9048 51.3172 58.9113 51.3296 58.918C51.5237 59.0233 51.7148 59.1327 51.903 59.2484C51.9142 59.2553 51.9255 59.2622 51.9371 59.2693C52.1875 59.4231 52.4315 59.5862 52.6709 59.7566C52.6796 59.7627 52.6883 59.7689 52.6973 59.7753C52.8222 59.8643 52.945 59.956 53.0662 60.0502C53.0733 60.0557 53.0805 60.0613 53.0879 60.067C53.1656 60.1276 53.2427 60.1889 53.3187 60.2515C53.3385 60.2678 53.3583 60.284 53.3782 60.3002C53.4499 60.3583 53.5202 60.4179 53.5901 60.4782C53.6167 60.5011 53.6433 60.5238 53.6701 60.5464C53.7625 60.6246 53.8513 60.7062 53.9395 60.7891C54.0772 60.9186 54.0772 60.9186 54.2329 61.025C54.2547 61.0376 54.2547 61.0376 54.2858 61.0665C54.2922 61.1051 54.2905 61.1408 54.2858 61.1795C54.2938 61.1807 54.3018 61.1819 54.3101 61.1831C54.4695 61.2211 54.5805 61.3651 54.6779 61.4867C54.762 61.5897 54.8562 61.6833 54.9509 61.7764C54.9966 61.8215 55.0399 61.8678 55.0817 61.9164C55.1015 61.9391 55.1224 61.9603 55.1441 61.9813C55.1801 62.0168 55.2138 62.0537 55.2468 62.0921C55.2718 62.1208 55.2975 62.1487 55.3233 62.1768C55.3693 62.2272 55.4128 62.279 55.4557 62.3321C55.4862 62.3693 55.5176 62.4057 55.5492 62.4422C55.6109 62.5137 55.6696 62.5873 55.7275 62.662C55.7421 62.6808 55.7568 62.6995 55.7716 62.7182C55.9108 62.894 56.046 63.0726 56.1764 63.255C56.2008 63.289 56.2253 63.3228 56.2498 63.3567C56.32 63.4536 56.3895 63.551 56.4582 63.649C56.4708 63.667 56.4835 63.6849 56.4961 63.7029C56.6928 63.9821 56.8833 64.2661 57.0639 64.5561C57.0744 64.5729 57.0744 64.5729 57.0851 64.5901C57.1702 64.7269 57.2538 64.8647 57.3356 65.0035C57.4195 65.1458 57.5062 65.2861 57.5946 65.4256C57.6017 65.4369 57.6088 65.4481 57.6161 65.4597C57.786 65.729 57.966 65.9912 58.1484 66.2521C58.1867 66.3069 58.2248 66.3617 58.263 66.4166C58.2706 66.4274 58.2781 66.4382 58.2858 66.4493C58.3329 66.517 58.3796 66.5849 58.4261 66.653C58.543 66.8243 58.6621 66.994 58.7843 67.1616C58.797 67.1791 58.8097 67.1966 58.8224 67.2141C58.909 67.3335 58.9983 67.4499 59.0923 67.5636C59.1133 67.5892 59.1339 67.6152 59.1545 67.6411C59.1827 67.6766 59.2117 67.7114 59.2412 67.7458C59.3013 67.8159 59.3581 67.8879 59.4138 67.9615C59.46 68.0225 59.5073 68.0825 59.5553 68.1421C59.5878 68.1823 59.6198 68.2229 59.6515 68.2637C59.7044 68.3317 59.7591 68.3978 59.8155 68.463C59.8496 68.5023 59.8828 68.5421 59.9153 68.5827C59.9645 68.6433 60.0172 68.7002 60.0704 68.7572C60.0943 68.7828 60.1176 68.8088 60.1405 68.8354C60.1706 68.8703 60.2018 68.9039 60.2333 68.9375C60.2922 69.0003 60.3484 69.0641 60.4022 69.1313C60.4409 69.1776 60.482 69.2214 60.5233 69.2653C60.5555 69.2996 60.5871 69.334 60.6176 69.3697C60.6555 69.4137 60.6967 69.4541 60.7383 69.4946C60.7599 69.5167 60.7796 69.5386 60.7995 69.5621C60.8642 69.6363 60.935 69.7049 61.0047 69.7745C61.0201 69.7899 61.0354 69.8053 61.0508 69.8206C61.0829 69.8528 61.115 69.8848 61.1471 69.9169C61.1881 69.9578 61.2291 69.9988 61.27 70.0398C61.3017 70.0715 61.3334 70.1032 61.3651 70.1349C61.3802 70.15 61.3953 70.1651 61.4104 70.1802C61.5126 70.283 61.5126 70.283 61.6204 70.3799C61.6464 70.4021 61.6701 70.4265 61.694 70.451C61.7331 70.4906 61.7731 70.5281 61.8154 70.5643C61.8418 70.5874 61.8674 70.6112 61.8931 70.6351C61.9533 70.6913 62.0145 70.745 62.0788 70.7966C62.1102 70.8223 62.1406 70.8488 62.1711 70.8756C62.2533 70.9479 62.3383 71.0152 62.4257 71.0812C62.4714 71.1157 62.5161 71.1512 62.5607 71.1871C62.6182 71.2334 62.6762 71.279 62.7348 71.3238C62.7784 71.3572 62.8218 71.391 62.8649 71.425C62.8924 71.4466 62.92 71.4683 62.9475 71.4899C62.9552 71.496 62.9629 71.502 62.9708 71.5083C63.092 71.6035 63.2146 71.6963 63.3391 71.787C63.3643 71.8054 63.3894 71.8239 63.4145 71.8423C63.5423 71.9361 63.6738 72.024 63.806 72.1114C63.8381 72.1326 63.8701 72.154 63.9021 72.1755C64.0305 72.2617 64.1601 72.3455 64.2914 72.4272C64.3007 72.4331 64.3101 72.439 64.3197 72.445C64.7238 72.6978 65.1387 72.9337 65.5582 73.1597C65.6006 73.1825 65.6429 73.2056 65.685 73.2289C66.569 73.7179 67.5299 74.0942 70.8561 74.779C70.8668 74.7799 70.8776 74.7809 70.8887 74.7818C70.9199 74.7845 70.9511 74.7872 70.9823 74.7898C70.9911 74.7905 70.9999 74.7913 71.009 74.792C71.1804 74.8059 71.3517 74.8119 71.5237 74.8124C71.543 74.8124 71.5623 74.8125 71.5817 74.8126C71.6431 74.8128 71.7045 74.8129 71.7659 74.8129C71.7763 74.8129 71.7868 74.8129 71.7976 74.8129C72.1103 74.813 72.4214 74.8103 72.7328 74.779C72.7622 74.7761 72.7915 74.7733 72.8209 74.7705C73.7594 74.6804 74.6944 74.4708 76.6916 73.5803C76.7142 73.5675 76.7369 73.5551 76.7597 73.5427C77.0334 73.3941 77.2938 73.226 77.5493 73.0484C77.5576 73.0426 77.566 73.0368 77.5746 73.0309C77.8454 72.8431 78.1036 72.6346 78.3544 72.421C78.3739 72.4045 78.3934 72.3879 78.413 72.3714C78.4856 72.3097 78.5569 72.247 78.6265 72.1819C78.658 72.1524 78.69 72.1235 78.7226 72.0952C78.7683 72.0554 78.8124 72.0143 78.8564 71.9727C78.9118 71.9205 78.9674 71.8686 79.0237 71.8174C79.0939 71.7532 79.1601 71.6879 79.2221 71.6158C79.2447 71.5899 79.2679 71.5646 79.2912 71.5393C79.3426 71.4824 79.3897 71.4227 79.4366 71.3622C79.4633 71.3278 79.4906 71.2938 79.518 71.26C79.596 71.1637 79.6695 71.0644 79.7425 70.9643C79.7759 70.9185 79.8095 70.8728 79.8432 70.8272C79.8498 70.8182 79.8564 70.8092 79.8631 70.8C79.8987 70.7517 79.9346 70.7037 79.9709 70.656C80.2404 70.3004 80.4675 69.9181 80.6774 69.525C80.6827 69.5152 80.6879 69.5054 80.6934 69.4953C80.8692 69.1666 81.0271 68.8292 81.1752 68.4874C81.1853 68.4641 81.1954 68.4409 81.2056 68.4177C81.3006 68.1996 81.3839 67.9785 81.4599 67.753C81.4677 67.7301 81.4755 67.7071 81.4834 67.6841C81.6387 67.2272 81.7564 66.7591 81.8761 66.2919C81.9935 65.8339 82.1118 65.3766 82.2599 64.9273C82.2623 64.9198 82.2648 64.9123 82.2673 64.9046C82.3417 64.6794 82.3417 64.6794 82.4 64.6368C82.4094 64.6339 82.4188 64.631 82.4285 64.628C82.4427 64.6233 82.4427 64.6233 82.4572 64.6184C82.4843 64.6125 82.4843 64.6125 82.5295 64.6125C83.0427 65.4902 83.3772 66.4627 83.9925 70.6122C83.9927 70.6249 83.993 70.6376 83.9932 70.6507C83.9984 70.9355 83.9997 71.2203 83.9996 71.5051C83.9996 71.5601 83.9997 71.6151 83.9999 71.6702C84.0011 72.1048 83.9941 72.5383 83.9552 72.9714C83.9543 72.9821 83.9533 72.9928 83.9524 73.0038C83.8861 73.7568 83.7692 74.5072 83.5797 75.2392C83.5776 75.2473 83.5755 75.2554 83.5734 75.2637C83.4185 75.8634 83.2094 76.4463 82.9586 77.0122C82.9531 77.0246 82.9476 77.0371 82.942 77.0499C82.7938 77.3841 82.6313 77.7169 82.4457 78.032C82.4255 78.0664 82.4058 78.1009 82.3861 78.1356C82.3077 78.273 82.2273 78.4086 82.1416 78.5416C82.1203 78.5747 82.0993 78.6078 82.0783 78.641C82.0071 78.7533 81.9358 78.8649 81.8573 78.9723C81.8295 79.0104 81.8031 79.0494 81.7767 79.0886C81.7054 79.1942 81.6302 79.2959 81.552 79.3965C81.5288 79.4265 81.5061 79.457 81.4835 79.4875C81.3856 79.6182 81.2829 79.7451 81.1796 79.8715C81.165 79.8894 81.1505 79.9074 81.1359 79.9254C81.0731 80.0027 81.0084 80.0784 80.9434 80.1539C80.9147 80.1872 80.886 80.2206 80.8574 80.254C80.8518 80.2605 80.8463 80.267 80.8405 80.2737C80.8017 80.3189 80.7632 80.3644 80.7247 80.41C80.7052 80.433 80.6857 80.4561 80.6661 80.4791C80.6592 80.4873 80.6523 80.4955 80.6452 80.504C80.567 80.5953 80.4841 80.679 80.3883 80.7514C80.3082 80.8131 80.2372 80.8812 80.1665 80.9533C80.1541 80.9658 80.1416 80.9784 80.1291 80.9909C80.0967 81.0235 80.0644 81.0561 80.0322 81.0888C79.9804 81.1413 79.9284 81.1936 79.8765 81.2459C79.8586 81.264 79.8407 81.2821 79.8228 81.3003C79.7634 81.3604 79.7031 81.4184 79.6385 81.4729C79.6262 81.4835 79.614 81.4941 79.6018 81.5047C79.4599 81.627 79.3161 81.7466 79.1668 81.8597C79.1151 81.8989 79.0642 81.9389 79.0138 81.9797C78.9118 82.062 78.8065 82.1401 78.7012 82.2182C78.6921 82.225 78.6831 82.2317 78.6738 82.2386C78.4038 82.4398 78.1254 82.6265 77.8402 82.8055C77.8035 82.8285 77.767 82.8518 77.7306 82.8753C77.1656 83.2397 76.5709 83.5612 75.9576 83.8363C75.9101 83.8576 75.8627 83.8791 75.8154 83.9008C75.3017 84.135 74.7683 84.3286 74.2315 84.5026C74.2067 84.5107 74.182 84.5188 74.1572 84.527C73.076 84.8832 71.9489 85.1191 61.2654 84.556C61.1854 84.5319 61.1053 84.5083 61.025 84.4851C60.0388 84.2 59.0709 83.8465 58.0689 83.3927C58.0559 83.3868 58.0428 83.3808 58.0293 83.3747C57.958 83.3422 57.8868 83.3092 57.8158 83.2761C57.7889 83.2635 57.7619 83.251 57.735 83.2385C57.4846 83.1222 57.2368 83.0011 56.99 82.8773C56.9407 82.8526 56.8912 82.8279 56.8418 82.8032C56.6472 82.7062 56.4534 82.6085 56.2634 82.5025C56.2277 82.4828 56.1917 82.4636 56.1556 82.4445C55.9961 82.3601 55.8393 82.2721 55.6839 82.1803C55.6432 82.1565 55.6022 82.1332 55.5611 82.11C55.4312 82.0366 55.3042 81.9589 55.1779 81.8795C55.1644 81.871 55.1644 81.871 55.1507 81.8623C55.0973 81.8288 55.0441 81.7951 54.9908 81.7613C54.963 81.7437 54.935 81.7262 54.907 81.7086C54.4995 81.4527 54.1075 81.1723 53.7211 80.8857C53.7133 80.8799 53.7055 80.8741 53.6974 80.8681C53.584 80.7838 53.4722 80.6977 53.3609 80.6106C53.3391 80.5936 53.3173 80.5766 53.2955 80.5596C53.2182 80.4992 53.1418 80.4377 53.0657 80.3756C53.011 80.3311 52.9557 80.2873 52.9 80.2439C52.8414 80.198 52.7838 80.151 52.7262 80.1039C52.6794 80.0658 52.6321 80.0286 52.5841 79.9921C52.5214 79.9443 52.4612 79.8941 52.4013 79.8428C52.3688 79.8151 52.3357 79.7881 52.3025 79.7613C52.2487 79.7175 52.1973 79.6715 52.1463 79.6246C52.1222 79.6025 52.0978 79.5809 52.0731 79.5595C52.0412 79.5318 52.01 79.5034 51.979 79.4747C51.9214 79.4214 51.8629 79.3701 51.8017 79.3209C51.7761 79.3003 51.7507 79.2795 51.7255 79.2584C51.6269 79.1764 51.5267 79.1006 51.4174 79.0336C51.4097 79.0289 51.402 79.0242 51.394 79.0193C51.0419 78.8066 50.6665 78.7466 50.2613 78.7485C50.2483 78.7485 50.2354 78.7485 50.2221 78.7486C50.0069 78.749 49.7921 78.7548 49.5772 78.7649C49.1391 78.7852 48.7009 78.7875 48.2624 78.7873C48.248 78.7873 48.2336 78.7873 48.2188 78.7873C47.764 78.7872 47.31 78.7846 46.8556 78.7637C46.8315 78.7626 46.8073 78.7614 46.7832 78.7604C46.2794 78.7373 45.7764 78.7053 45.274 78.661C45.2603 78.6598 45.2466 78.6585 45.2324 78.6573C44.159 78.5621 43.0965 78.3967 42.0382 78.1958C41.8853 78.1668 41.7322 78.1399 41.5787 78.1145C40.298 77.9019 39.0416 77.5508 36.0614 76.4913C36.038 76.482 36.0145 76.4729 35.9911 76.4637C35.4602 76.2559 34.941 76.0196 34.4236 75.7805C34.3804 75.7605 34.3371 75.7406 34.2937 75.7207C34.0826 75.6235 33.8735 75.5223 33.6649 75.4199C33.6451 75.4102 33.6451 75.4102 33.6249 75.4003C33.4856 75.3319 33.3484 75.2606 33.2126 75.1856C33.1633 75.1585 33.1138 75.132 33.064 75.1057C32.8968 75.0174 32.7321 74.9263 32.5693 74.83C32.4 74.73 32.2294 74.6331 32.0561 74.5405C31.9324 74.4743 31.8103 74.4054 31.6886 74.3358C31.6771 74.3292 31.6657 74.3227 31.6539 74.316C31.3787 74.1591 31.1083 73.9947 30.8405 73.8256C30.8191 73.8122 30.7978 73.7987 30.7764 73.7854C30.4267 73.566 30.0857 73.3317 29.7476 73.0949C29.7382 73.0884 29.7288 73.0818 29.7191 73.075C29.647 73.0244 29.5755 72.9731 29.5043 72.9213C29.4481 72.8806 29.3915 72.8405 29.3347 72.8006C29.2389 72.7333 29.1446 72.6638 29.0505 72.5941C29.0239 72.5744 28.9972 72.5548 28.9705 72.5352C28.8655 72.4583 28.7614 72.3802 28.658 72.3011C28.5978 72.255 28.5373 72.2093 28.4764 72.164C28.4008 72.1074 28.3263 72.0494 28.2522 71.9908C28.233 71.9756 28.2136 71.9604 28.1943 71.9453C28.116 71.8841 28.0385 71.822 27.9614 71.7591C27.9133 71.7199 27.8648 71.6813 27.8158 71.6431C27.7403 71.5842 27.6665 71.5233 27.5926 71.4623C27.4904 71.3778 27.3876 71.294 27.2829 71.2125C27.171 71.1253 27.0644 71.032 26.9593 70.9366C26.9366 70.9161 26.9136 70.8959 26.8905 70.8759C26.8347 70.8272 26.7803 70.7769 26.7259 70.7268C26.7092 70.7115 26.6926 70.6963 26.6759 70.6811C26.4295 70.4561 26.4295 70.4561 26.3228 70.3474C26.3025 70.3275 26.2817 70.3088 26.2601 70.2903C26.2111 70.2477 26.164 70.2035 26.1169 70.1588C26.0563 70.1015 25.9954 70.0447 25.9332 69.9892C25.7664 69.8401 25.6032 69.6868 25.4463 69.5273C25.4344 69.5153 25.4344 69.5153 25.4224 69.503C25.4155 69.4961 25.4087 69.4891 25.4017 69.482C25.3797 69.4609 25.3572 69.441 25.3341 69.4211C25.2815 69.3754 25.2323 69.3266 25.1831 69.2773C25.1736 69.2678 25.1642 69.2584 25.1544 69.2486C25.1345 69.2288 25.1147 69.2089 25.0948 69.189C25.0646 69.1587 25.0344 69.1285 25.0041 69.0984C24.9847 69.0789 24.9653 69.0595 24.9459 69.0401C24.937 69.0312 24.9281 69.0223 24.9188 69.0131C24.8715 68.9656 24.826 68.9172 24.7824 68.8663C24.7611 68.8418 24.7384 68.8191 24.7152 68.7966C24.6774 68.7592 24.6418 68.7208 24.6072 68.6805C24.5855 68.6556 24.5632 68.6313 24.5407 68.6071C24.4965 68.5595 24.4537 68.5115 24.4131 68.4606C24.3625 68.3977 24.3077 68.3393 24.2521 68.2808C24.2101 68.2367 24.1694 68.1918 24.1296 68.1459C24.1032 68.1157 24.0761 68.0863 24.0489 68.0569C24.0077 68.0122 23.9671 67.9671 23.9273 67.9211C23.9047 67.8953 23.8815 67.8699 23.8583 67.8444C23.8232 67.8056 23.7896 67.7659 23.7567 67.7251C23.7201 67.6798 23.682 67.6365 23.6424 67.5939C23.5945 67.5424 23.5494 67.4894 23.5054 67.4347C23.475 67.3975 23.4437 67.3612 23.4123 67.3249C23.362 67.2667 23.3137 67.2074 23.2665 67.1466C23.2265 67.0951 23.1854 67.0444 23.144 66.9939C23.0929 66.9314 23.0436 66.8679 22.9955 66.803C22.9682 66.7665 22.9401 66.7305 22.9118 66.6947C22.9041 66.6849 22.9041 66.6849 22.8962 66.6749C22.8853 66.661 22.8744 66.6472 22.8635 66.6334C22.7565 66.4975 22.6519 66.3602 22.5498 66.2206C22.5234 66.1845 22.4967 66.1485 22.4701 66.1125C22.4125 66.0344 22.3552 65.9561 22.2985 65.8773C22.1999 65.7405 22.1 65.6048 21.9985 65.4701C21.8706 65.3 21.7478 65.1262 21.6266 64.9513C21.6209 64.9431 21.6152 64.9349 21.6093 64.9265C21.4427 64.6858 21.2794 64.4422 21.122 64.1954C21.105 64.1688 21.088 64.1423 21.071 64.1158C20.968 63.9551 20.8678 63.7929 20.7683 63.63C20.7604 63.6172 20.7526 63.6043 20.7447 63.5915C20.6299 63.4038 20.5175 63.2149 20.4068 63.0248C20.3857 62.9887 20.3646 62.9527 20.3435 62.9166C20.1388 62.5671 19.94 62.2145 19.7481 61.8579C19.7289 61.8224 19.7097 61.7869 19.6905 61.7514C19.4319 61.2731 19.1828 60.7875 18.957 60.2929C18.937 60.2495 18.9167 60.2063 18.8962 60.1632C18.7862 59.9314 18.6799 59.6982 18.5775 59.4629C18.5733 59.4535 18.5692 59.444 18.565 59.4343C18.3143 58.8588 18.0813 58.2752 17.8656 57.6858C17.8549 57.6567 17.8443 57.6276 17.8336 57.5986C17.5596 56.852 17.3396 56.0903 17.1295 55.3238C17.1145 55.2692 17.0994 55.2146 17.0843 55.16C16.8178 54.195 16.6053 53.2232 16.0365 49.1638C16.0359 49.1545 16.0354 49.1452 16.0347 49.1357C15.9929 48.482 16.0005 47.8258 16.0006 47.1711C16.0006 47.0881 16.0005 47.0051 16.0003 46.9222C15.9996 46.4637 15.9989 46.0053 16.0132 45.547C16.0134 45.5393 16.0136 45.5316 16.0139 45.5237C16.0479 44.4361 16.1505 43.3538 16.319 42.2788C16.3456 42.1091 16.3702 41.9392 16.3937 41.769C16.5152 40.8925 16.6948 40.0286 16.9061 39.1695C16.911 39.1495 16.911 39.1495 16.916 39.1291C17.0172 38.7185 17.126 38.3105 17.2449 37.9047C17.2484 37.8927 17.2519 37.8808 17.2555 37.8685C17.5605 36.8282 17.9165 35.8074 18.5779 34.2252C18.5896 34.1986 18.6013 34.172 18.6129 34.1454C18.7307 33.8767 18.8508 33.6092 18.9741 33.343C18.9937 33.3007 19.0132 33.2583 19.0326 33.2159C19.1936 32.8649 19.3594 32.5149 19.5465 32.177C19.5871 32.1035 19.6262 32.0293 19.6653 31.9551C19.7365 31.8204 19.8092 31.6868 19.8848 31.5545C19.9254 31.4834 19.965 31.4116 20.0046 31.3399C20.088 31.1895 20.1736 31.0404 20.2601 30.8918C20.268 30.8781 20.2759 30.8645 20.2839 30.8509C20.3802 30.6852 20.4779 30.5206 20.5796 30.3582C20.609 30.3109 20.638 30.2634 20.6671 30.2159C20.7395 30.0977 20.8128 29.9804 20.8888 29.8645C20.9041 29.841 20.9193 29.8175 20.9345 29.7939C21.158 29.4474 21.3894 29.106 21.6266 28.7687C21.6324 28.7603 21.6383 28.752 21.6443 28.7434C21.7634 28.5737 21.8847 28.4058 22.0079 28.2391C22.0525 28.1788 22.0966 28.1181 22.1404 28.0572C22.2532 27.9007 22.3678 27.7457 22.4852 27.5925C22.5356 27.5266 22.5849 27.4601 22.6337 27.3931C22.6942 27.3103 22.7575 27.2303 22.8226 27.1512C22.8559 27.1107 22.8882 27.0695 22.9203 27.0281C22.9679 26.967 23.0175 26.9079 23.0682 26.8493C23.1019 26.8104 23.135 26.771 23.1673 26.731C23.2141 26.6734 23.2627 26.6174 23.3115 26.5615C23.3558 26.5105 23.3988 26.4587 23.4412 26.4063C23.472 26.3689 23.5035 26.3322 23.5351 26.2955C23.5926 26.2286 23.6489 26.1608 23.7045 26.0922C23.7162 26.0777 23.728 26.0632 23.7398 26.0487C23.746 26.0411 23.7523 26.0334 23.7587 26.0255C23.7715 26.0098 23.7842 25.9941 23.797 25.9783C23.8245 25.9445 23.852 25.9107 23.8793 25.8768C23.9299 25.8141 23.9824 25.7539 24.037 25.6947C24.0588 25.6708 24.08 25.6466 24.101 25.622C24.1591 25.5554 24.2227 25.4943 24.2856 25.4323C24.3504 25.3683 24.4136 25.3037 24.4724 25.234C24.4778 25.2276 24.4833 25.2212 24.4889 25.2146C24.4995 25.2022 24.5101 25.1897 24.5206 25.1773C24.5869 25.0993 24.6551 25.0234 24.7251 24.9487C24.7439 24.9285 24.7627 24.9082 24.7814 24.8879C24.8794 24.7822 24.9804 24.6796 25.0822 24.5776C25.0888 24.5709 25.0954 24.5643 25.1022 24.5575C25.1214 24.5382 25.1406 24.519 25.1598 24.4998C25.1655 24.4942 25.1711 24.4885 25.1769 24.4827C25.2075 24.4523 25.2388 24.4234 25.2715 24.3953C25.3274 24.3469 25.3794 24.2947 25.4316 24.2424C25.4473 24.2267 25.4473 24.2267 25.4633 24.2107C25.4853 24.1887 25.5073 24.1667 25.5293 24.1447C25.5572 24.1167 25.5852 24.0887 25.6132 24.0608C25.6402 24.0338 25.6672 24.0068 25.6942 23.9798C25.7041 23.9699 25.714 23.96 25.7243 23.9498C25.7732 23.9007 25.8203 23.8509 25.8654 23.7983C25.8964 23.7631 25.9295 23.7301 25.9627 23.697C25.9699 23.6898 25.977 23.6826 25.9845 23.6752C25.9995 23.6601 26.0146 23.645 26.0298 23.63C26.0526 23.6071 26.0755 23.5843 26.0983 23.5614C26.227 23.4326 26.227 23.4326 26.2958 23.3742C26.3199 23.3536 26.3419 23.3313 26.364 23.3085C26.4016 23.2705 26.4402 23.2346 26.4808 23.1998C26.5094 23.1749 26.5372 23.1493 26.5651 23.1236C26.6161 23.077 26.6688 23.0332 26.7225 22.9899C26.7545 22.9633 26.7851 22.9358 26.8157 22.9076C26.8662 22.8612 26.9183 22.8176 26.9717 22.7745C27.0014 22.75 27.03 22.7247 27.0585 22.6987C27.1059 22.6556 27.1549 22.615 27.2047 22.5747C27.245 22.5414 27.2845 22.5072 27.3239 22.4729C27.3823 22.4219 27.4415 22.372 27.5018 22.3232C27.5372 22.2942 27.572 22.2646 27.6069 22.235C27.6577 22.1918 27.709 22.1496 27.7612 22.1082C27.8006 22.0768 27.8396 22.0451 27.8786 22.0134C27.8863 22.0071 27.8941 22.0008 27.902 21.9944C27.9408 21.9628 27.9796 21.9312 28.0182 21.8995C28.1097 21.8246 28.2026 21.7518 28.2968 21.6803C28.3386 21.6485 28.38 21.6162 28.4214 21.5837C28.513 21.5119 28.6062 21.4427 28.7008 21.375C28.7542 21.3368 28.807 21.2979 28.8597 21.2589C28.9374 21.2015 29.0154 21.1447 29.0938 21.0883C29.1554 21.0439 29.2165 20.999 29.2775 20.954C29.6831 20.6546 30.0984 20.3672 30.5281 20.1036C30.5839 20.0693 30.6393 20.0344 30.6948 19.9997C30.7598 19.959 30.8248 19.9183 30.8901 19.8782C31.0014 19.8096 31.1111 19.7394 31.2198 19.6669C31.2305 19.6598 31.2411 19.6527 31.2521 19.6453C31.3057 19.6097 31.3592 19.5739 31.4125 19.5379C31.5473 19.4475 31.6853 19.3694 31.8303 19.2965C32.0052 19.2084 32.1752 19.1116 32.3432 19.0112C32.5548 18.8848 32.7708 18.7678 32.9901 18.6555C33.0444 18.6277 33.0984 18.5994 33.1522 18.5707C33.3008 18.4914 33.453 18.42 33.6056 18.3488C33.6468 18.3296 33.6879 18.3103 33.7291 18.2909C33.7378 18.2868 33.7465 18.2828 33.7554 18.2785C33.8834 18.2182 34.0105 18.156 34.137 18.0926C34.1443 18.0889 34.1516 18.0853 34.1592 18.0815C34.2327 18.0447 34.3061 18.0078 34.3795 17.9707C34.5724 17.8733 34.7668 17.7799 34.9635 17.6903C34.9733 17.6858 34.983 17.6814 34.9931 17.6768C35.049 17.6514 35.105 17.6262 35.1612 17.6014C35.1695 17.5977 35.1778 17.594 35.1863 17.5902C35.3817 17.5035 35.5788 17.421 35.7766 17.3402C35.7875 17.3358 35.7875 17.3358 35.7986 17.3312C36.3822 17.0926 36.976 16.879 37.5722 16.6739C37.589 16.6682 37.589 16.6682 37.606 16.6623C37.8857 16.5661 38.1657 16.4711 38.4473 16.3806C38.4672 16.3742 38.4871 16.3677 38.507 16.3613C38.5168 16.3582 38.5265 16.3551 38.5365 16.3518C38.6005 16.3312 38.6641 16.3097 38.7277 16.2878C39.0537 16.176 39.3872 16.0955 39.7219 16.0146C39.8066 15.994 39.8913 15.9732 39.9759 15.9524C41.0038 15.6996 42.0322 15.4631 46.4005 15.0237C46.4124 15.0233 46.4244 15.0229 46.4367 15.0224C46.5124 15.0197 46.5882 15.0173 46.664 15.0151C46.6942 15.0143 46.7244 15.0133 46.7546 15.0124C47.1936 14.9984 47.6328 15.0004 48.072 15.0005ZM37.256 63.7881C37.2373 63.7972 37.2373 63.7972 37.2182 63.8064C37.1176 63.8576 37.0292 63.923 36.9398 63.9914C36.9454 64.0437 36.9685 64.0764 37.0005 64.1163C37.0056 64.1227 37.0106 64.1291 37.0158 64.1357C37.0317 64.1555 37.0478 64.1751 37.064 64.1947C37.069 64.2006 37.0739 64.2066 37.079 64.2127C37.2218 64.3821 37.401 64.5003 37.5983 64.5977C37.6099 64.6035 37.6099 64.6035 37.6217 64.6094C37.6466 64.6217 37.6715 64.6341 37.6964 64.6464C38.13 64.8614 38.13 64.8614 38.3159 64.9645C38.393 65.0073 38.4714 65.0476 38.5498 65.0881C38.6013 65.1147 38.6528 65.1414 38.704 65.1685C38.8421 65.2416 38.9811 65.3127 39.1208 65.3826C39.132 65.3882 39.1433 65.3938 39.1549 65.3997C39.3419 65.4931 39.5304 65.5822 39.7215 65.6669C39.7616 65.6847 39.8016 65.7029 39.8416 65.7211C40.2381 65.9018 40.6417 66.0653 41.0504 66.2161C41.0599 66.2196 41.0695 66.2231 41.0792 66.2268C41.5642 66.4057 42.056 66.5636 42.552 66.7088C42.6202 66.7289 42.6883 66.7493 42.7563 66.7701C42.7651 66.7728 42.7739 66.7755 42.7829 66.7782C42.8158 66.7883 42.8486 66.7983 42.8815 66.8085C42.9029 66.8151 42.9244 66.8217 42.9459 66.8283C42.9578 66.8319 42.9697 66.8356 42.9819 66.8394C43.0984 66.8712 43.1959 66.8652 43.309 66.8259C43.2956 66.741 43.2707 66.6656 43.237 66.5867C43.2321 66.5749 43.2271 66.5632 43.222 66.5511C43.0697 66.1983 42.8568 65.8766 42.6089 65.5837C42.5991 65.5719 42.5893 65.5602 42.5794 65.5484C42.5136 65.4696 42.4456 65.3932 42.3757 65.318C42.3608 65.3018 42.3461 65.2855 42.3314 65.2691C42.2705 65.2017 42.2079 65.1364 42.1437 65.072C42.1364 65.0646 42.129 65.0571 42.1214 65.0495C42.0778 65.006 42.0329 64.9647 41.9863 64.9245C41.9567 64.8988 41.9282 64.8721 41.8995 64.8454C41.837 64.7877 41.7719 64.7336 41.7054 64.6803C41.6859 64.6643 41.6664 64.6483 41.6469 64.6323C41.6366 64.6239 41.6263 64.6155 41.6157 64.6069C41.5905 64.5863 41.5654 64.5656 41.5404 64.5448C40.7953 63.9291 39.8536 63.5722 38.8839 63.5717C38.8668 63.5716 38.8498 63.5716 38.8328 63.5716C38.7972 63.5715 38.7616 63.5715 38.726 63.5715C38.6902 63.5715 38.6544 63.5714 38.6186 63.5712C38.1555 63.5693 37.68 63.5803 37.256 63.7881Z" fill="white"></path>
</svg><style>@media (prefers-color-scheme: light) { :root { filter: none; } }
@media (prefers-color-scheme: dark) { :root { filter: none; } }
</style></svg>